<svg id="Layer_1" data-name="Layer 1" xmlns="http://www.w3.org/2000/svg" viewBox="0 0 820 312"><defs><style>.cls-1{fill:#dc8d27;}.cls-2{fill:#231f20;}.cls-3{font-size:67px;fill:#2e3192;font-family:Arial-BoldItalicMT, Arial;font-weight:700;font-style:italic;}.cls-4{font-size:50px;fill:#424143;font-family:Calibri-Light, Calibri;font-weight:300;}.cls-5{letter-spacing:-0.07em;}.cls-6{letter-spacing:-0.01em;}.cls-7{letter-spacing:-0.01em;}.cls-8{letter-spacing:0em;}</style></defs><path class="cls-1" d="M613.43,88.38c-4.33-1.49-13.2-1.48-30-1a.49.49,0,0,0,0-.12c-1.41-19.11-22-29-31.13-31.9-4.33-9.94-9.89-20-16.32-19.64-6-.64-36.91-3.63-48.18.35l-1.06.37-.83.77c-3.49,3.22-7,10.41-6.19,39.31.25,9.3.87,18.15,1.34,23.75H466.55c-.05-2-.11-4.43-.19-7.21,0-1.22-.07-2.51-.11-3.85-.47-14.6-1.41-35.52-3.28-48.38l.75-1.51-2-2.7c-1.19-1.56-2.3-2-4.36-2.11v0h-1.1l-1.61,0-7.79,0-27.9-.11c-20.88-.07-52.49-.16-84.85-.16h-.71c-126.16,0-132.9,1.29-135.1,1.71l-1.34.26-1,.84c-2.57,2.06-4.26,5.87-4.77,18.52-.27,6.89-.17,16.06.31,27.26.8,18.94,2.41,37.48,2.43,37.66l.44,5,25-.1a21.4,21.4,0,1,0,39.27-.14l8.17,0a21.4,21.4,0,1,0,39.12-.15l68.25-.25a5.46,5.46,0,0,0,0-10.92h0l-79.21.29-17.2.07-29.77.11-18,.07-25.62.09c-.49-6.33-1.34-17.86-1.89-29.84-1.17-25.63-.2-35,.5-38.3,26.62-1.84,215.75-1.14,249.66-1,1.65,13.55,2.48,34.46,2.87,47.8l-.68,20.37a17.21,17.21,0,0,0-1.68.66h0l-30.43.34a21.37,21.37,0,1,0,10.27,10.8l9.22-.1a21.4,21.4,0,1,0,40.18,14.48l62-.77a5.46,5.46,0,0,0-.07-10.92h-.07l-18.64.24.34-15.7.24-10.91.68-31,14.83-.07c.11,7.06.78,18.32,3.75,24.06l.44.84.69.65c3.16,2.93,9.17,3,33.51,2.25,10.35-.34,25.86-.84,29.51.16.31.85.88,3.11.89,8.37,0,4.85-.43,10.31-.81,15.12-.23,2.79-.43,5.21-.51,7.17a20.94,20.94,0,0,1-5.53-.74,5.6,5.6,0,0,0-1.27-.2,21.4,21.4,0,1,0-.06,11.12,27.86,27.86,0,0,0,6.14.74c5.16,0,9.85-1.76,11.38-6.75l.29-.94-.06-1c-.07-1.48.2-4.91.5-8.55C621.78,107.21,623.09,90.93,613.43,88.38ZM286.34,126.32a7.45,7.45,0,1,1-7.44,7.45A7.46,7.46,0,0,1,286.34,126.32Zm-47.36,0a7.45,7.45,0,1,1-7.45,7.45A7.46,7.46,0,0,1,239,126.32Zm174.25,14.9a7.45,7.45,0,1,1,7.45-7.45A7.46,7.46,0,0,1,413.23,141.22Zm48.54,0a7.45,7.45,0,1,1,7.44-7.45A7.46,7.46,0,0,1,461.77,141.22Zm52.88-13v.23l-32.07.4a21.44,21.44,0,0,0-16.87-16.08l.05-1.52h9.07v.06l40.17,1Zm.6-26.79L492,100.8c-.44-5.19-1.12-14.33-1.4-23.85-.06-2.17-.09-4.2-.11-6.1a4.19,4.19,0,0,0,.5,0h0l24.89-.12ZM491,60h-.27c.47-8.9,1.58-12.6,2.2-14,8.38-1.88,29.39-.68,41.9.65.89.89,3.4,3.94,7.43,13.11Zm63.38,27.75c-1.34-4.78-1.85-13.93-1.79-20.6,7.55,3.18,18.9,10.26,19.91,20.65C565.26,88,557.86,88.08,554.36,87.71Zm27.28,53.51a7.45,7.45,0,1,1,7.45-7.45A7.46,7.46,0,0,1,581.64,141.22Z"/><path class="cls-2" d="M579.07,175.46l-.21,6.34c-.06-2-.12-4.14-.19-6.35Z"/><text class="cls-3" transform="translate(61.78 222.93)">5 star golden logistcs</text><text class="cls-4" transform="translate(181.39 277.44)"><tspan class="cls-5">Y</tspan><tspan x="19.92" y="0">our </tspan><tspan class="cls-6" x="100.51" y="0">c</tspan><tspan x="121.29" y="0">a</tspan><tspan class="cls-7" x="144.82" y="0">r</tspan><tspan class="cls-8" x="161.33" y="0">g</tspan><tspan x="184.52" y="0">o our priority</tspan></text></svg>